<?xml version="1.0" encoding="UTF-8"?>
<svg id="Camada_1" xmlns="http://www.w3.org/2000/svg" viewBox="0 0 494.91 181.54">
  <defs>
    <style>
      .cls-1 {
        fill: none;
      }

      .cls-2 {
        fill: #0b0a0a;
      }

      .cls-3 {
        fill: #84cc16;
      }
    </style>
  </defs>
  <g>
    <g>
      <path class="cls-2" d="M217.02,56.49h-17.48l-18.38,70.54h10.29l4.23-16.62h25.2l4.23,16.62h10.2l-18.29-70.54ZM198.17,100.33l9.38-37.09h1.47l9.37,37.09h-20.22Z"/>
      <path class="cls-2" d="M288.32,87.07c1.93-2.65,2.9-6.19,2.9-10.63v-1.1c0-3.9-.85-7.26-2.53-10.08-1.69-2.82-4.05-4.99-7.08-6.5-3.04-1.52-6.55-2.27-10.53-2.27h-27.03v70.54h9.93v-27.81h19.58c1.9,0,3.28.54,4.14,1.61.86,1.08,1.29,2.52,1.29,4.34v21.86h10.02v-23.38c0-2.95-.71-5.22-2.12-6.8-1.41-1.58-3.28-2.43-5.6-2.57v-1.61c2.75-1.08,5.1-2.94,7.03-5.6ZM281.19,78.26c0,3.42-.98,6.13-2.94,8.11-1.96,1.98-4.72,2.97-8.27,2.97h-16v-22.98h16c3.61,0,6.39,1,8.32,2.98,1.93,1.98,2.89,4.68,2.89,8.11v.81Z"/>
      <path class="cls-2" d="M350.24,81.99v-.61c0-8.13-2.1-14.55-6.29-19.25-4.2-4.7-10.16-7.05-17.89-7.05s-14.07,2.43-18.66,7.3c-4.6,4.88-6.9,11.91-6.9,21.12v16.53c0,9.2,2.3,16.24,6.9,21.11,4.59,4.87,10.82,7.3,18.66,7.3s13.69-2.35,17.89-7.05c4.19-4.7,6.29-11.12,6.29-19.25v-1.41h-9.83v1.71c0,4.71-1.19,8.59-3.54,11.64-2.36,3.06-5.97,4.59-10.81,4.59s-8.73-1.65-11.49-4.94c-2.76-3.29-4.14-7.79-4.14-13.5v-16.94c0-5.77,1.38-10.29,4.14-13.55,2.76-3.26,6.59-4.89,11.49-4.89s8.45,1.51,10.81,4.54c2.35,3.02,3.54,6.92,3.54,11.69v.91h9.83Z"/>
      <path class="cls-2" d="M391.72,56.49h-17.48l-18.39,70.54h10.3l4.23-16.62h25.2l4.23,16.62h10.2l-18.29-70.54ZM372.87,100.33l9.37-37.09h1.47l9.38,37.09h-20.22Z"/>
      <path class="cls-2" d="M466.88,99.32c-1.13-2.08-2.51-3.71-4.14-4.89-1.62-1.17-3.14-1.96-4.55-2.37v-1.61c1.41-.47,2.9-1.27,4.46-2.42,1.56-1.14,2.9-2.75,4-4.84,1.1-2.08,1.66-4.73,1.66-7.96v-1c0-3.63-.82-6.77-2.44-9.43-1.63-2.65-3.88-4.7-6.76-6.14-2.88-1.45-6.25-2.17-10.11-2.17h-32.65v9.67h8.65v51.2h-8.65v9.67h32.83c3.8,0,7.16-.73,10.07-2.21,2.91-1.48,5.19-3.6,6.85-6.35,1.65-2.76,2.48-6.08,2.48-9.98v-1.01c0-3.36-.57-6.08-1.7-8.16ZM435.02,66.36h12.96c3.19,0,5.72.86,7.59,2.58,1.87,1.71,2.81,4.04,2.81,7v1.01c0,2.95-.96,5.29-2.86,7-1.9,1.71-4.41,2.57-7.54,2.57h-12.96v-20.16ZM458.65,107.28c0,3.09-.95,5.51-2.85,7.26-1.9,1.74-4.5,2.62-7.82,2.62h-12.96v-20.66h12.96c3.38,0,6,.87,7.87,2.62,1.87,1.74,2.8,4.17,2.8,7.25v.91Z"/>
    </g>
    <g>
      <rect class="cls-2" x="26.33" y="28.81" width="127.92" height="127.91"/>
      <path class="cls-3" d="M26.33,28.81v127.91h127.92V28.81H26.33ZM127.34,79.16h-12.87v27.21h12.87v10.57h-12.87v12.88h-10.57v-12.88h-27.22v12.88h-10.57v-12.88h-12.87v-10.57h12.87v-27.21h-12.87v-10.57h12.87v-12.88h10.57v12.88h27.22v-12.88h10.57v12.88h12.87v10.57Z"/>
      <rect class="cls-3" x="76.68" y="79.16" width="27.22" height="27.21"/>
    </g>
  </g>
  <rect class="cls-1" x="-35.33" y="-20.32" width="742.21" height="633.06"/>
</svg>
